# xmcd
#
# Track frame offsets: 
#        150
#        18147
#        35727
#        54823
#        72557
#        91289
#        106247
#        126639
#        142479
#        159623
#        178650
#        195871
#
# Disc length: 2816 seconds
#
# Revision: 0
# Processed by: cddbd v1.5.2PL0 Copyright (c) Steve Scherf et al.
# Submitted via: ExactAudioCopy v0.99pb3
#
DISCID=a90afe0c
DTITLE=The Noll Brothers - A Country Heart
DYEAR=2007
DGENRE=Country
TTITLE0=Man On A Mission
TTITLE1=Shining Star
TTITLE2=A Country Heart
TTITLE3=Alright For You
TTITLE4=Your Days Are Done
TTITLE5=Doodlakine
TTITLE6=Never Let You Go
TTITLE7=Don't Worry
TTITLE8=Once In A Lifetime
TTITLE9=Give A Little
TTITLE10=Good Days
TTITLE11=Southern Country
EXTD=
EXTT0=
EXTT1=
EXTT2=
EXTT3=
EXTT4=
EXTT5=
EXTT6=
EXTT7=
EXTT8=
EXTT9=
EXTT10=
EXTT11=
PLAYORDER=
